<?xml version="1.0" encoding="utf-8" ?>
<svg xmlns="http://www.w3.org/2000/svg" xmlns:xlink="http://www.w3.org/1999/xlink" width="690" height="345">
	<path fill="white" transform="scale(0.336914 0.336914)" d="M0 0L2046.25 0C2047.07 1.22042 2047.81 2.51724 2048 4C2049.01 12.1116 2048.04 21.7853 2048.05 30.0413C2048.07 49.7647 2048.09 69.4882 2048.1 89.2116C2048.15 155.247 2048.18 221.283 2048.2 287.319C2048.24 459.687 2048.24 632.055 2048.18 804.423C2048.16 855.182 2048.13 905.941 2048.09 956.7C2048.07 971.345 2048.06 985.99 2048.04 1000.64C2048.03 1006.88 2048.83 1014.4 2048 1020.5C2047.82 1021.83 2047.06 1022.97 2046.25 1024L0 1024L0 0Z"/>
	<path fill="#E9907F" transform="scale(0.336914 0.336914)" d="M334.237 796.385L342.422 796.363L342.293 858.006L334.109 858.011L334.237 796.385Z"/>
	<path fill="#E9907F" transform="scale(0.336914 0.336914)" d="M1694.83 791.292L1716.94 791.358C1717.75 806.979 1717.32 822.729 1717.42 838.372C1717.46 843.811 1718.79 852.268 1716.09 856.952C1713.2 858.34 1709.62 857.464 1706.59 857.018L1707.16 855.721C1708.86 851.226 1707.88 843.128 1707.92 838.246C1707.98 828.706 1708.02 819.164 1708 809.623C1707.99 803.777 1708.76 797.277 1706.44 791.804L1694.83 791.292Z"/>
	<path fill="#E9907F" transform="scale(0.336914 0.336914)" d="M1870.64 792.029C1873.52 791.933 1876.85 791.523 1879.68 791.919C1881.48 796.98 1880.88 802.918 1880.91 808.23C1880.98 818.178 1881.01 828.128 1881 838.077C1880.99 843.304 1882.09 851.875 1879.97 856.612L1879.7 857.139C1877.08 858.481 1872.43 857.511 1869.63 857.055C1872.98 850.758 1871.35 802.388 1870.64 792.029Z"/>
	<path fill="#E9907F" transform="scale(0.336914 0.336914)" d="M253.304 762.104L263.051 761.895L263.102 858.122L253.089 858.062L253.304 762.104Z"/>
	<path fill="#E9907F" transform="scale(0.336914 0.336914)" d="M1785.89 712.094L1796.82 712.848C1796.91 730.466 1799.3 850.571 1796 857.032C1793.11 858.52 1788.82 857.557 1785.71 857.129L1786.79 854.867C1787.67 852.53 1787.15 848.181 1787.16 845.634C1787.2 838.306 1787.22 830.978 1787.23 823.65C1787.3 788.495 1788.71 752.579 1787.04 717.5C1786.96 715.831 1786.23 714.112 1785.53 712.614L1772.89 712.309L1785.89 712.094Z"/>
	<path fill="#9DD590" transform="scale(0.336914 0.336914)" d="M307.889 769.708L308.05 768.864C309.087 763.131 308.626 757.002 308.602 751.19C308.563 741.596 308.508 732.002 308.487 722.408C308.474 716.533 307.89 710.359 309.601 704.683L309.77 704.099C311.847 697.086 318.098 690.113 324.455 686.664C331.443 682.874 340.758 681.941 348.383 684.251C356.629 686.749 363.731 692.604 367.609 700.322C371.691 708.449 370.868 716.414 370.894 725.228C370.938 739.988 369.423 756.41 371.106 770.981C370.737 778.703 369.705 783.662 363.786 789.125C357.665 794.773 350.533 796.389 342.422 796.363L334.237 796.385C327.764 795.831 322.027 794.011 316.921 789.899C310.15 784.446 308.723 777.88 307.889 769.708Z"/>
	<path fill="#5EC05B" transform="scale(0.336914 0.336914)" d="M334.04 792.026C334.093 783.354 334.146 774.683 334.2 766.011C334.211 764.099 333.661 759.467 334.249 758C334.463 757.467 335.577 756.499 336 756.021L339 755.291C340.935 756.515 342.48 757.049 342.934 759.5C344.185 766.251 343.047 775.781 343.065 782.875C343.072 785.635 342.62 788.917 343.758 791.472C353.238 789.724 359.98 786.882 364.912 777.989C366.468 775.182 367.324 772.078 369.261 769.5L371.106 770.981C370.737 778.703 369.705 783.662 363.786 789.125C357.665 794.773 350.533 796.389 342.422 796.363L334.237 796.385C327.764 795.831 322.027 794.011 316.921 789.899C310.15 784.446 308.723 777.88 307.889 769.708L309.678 769.077C313.322 775.454 317.16 782.42 323.323 786.704C326.486 788.903 330.563 790.291 334.04 792.026Z"/>
	<path fill="#9DD590" transform="scale(0.336914 0.336914)" d="M1676.44 774.158L1676.6 773.311C1678.22 764.798 1677.76 755.943 1677.77 747.317C1677.78 734.566 1677.79 721.815 1677.84 709.064C1677.87 702.985 1677.08 695.786 1678.67 689.928C1681.11 680.92 1686.75 673.835 1694.44 668.648C1701.92 663.603 1712.43 662.719 1721.12 664.6C1730.53 666.635 1739.2 672.338 1744.25 680.647C1746 683.528 1747.17 686.639 1748.4 689.759C1750.08 694.021 1749.01 702.228 1749.02 707.092C1749.06 720.261 1749.08 733.43 1749.11 746.598C1749.13 754.86 1748.69 763.325 1749.96 771.5L1747.85 774.061C1748.42 777.678 1747.74 779.566 1745.66 782.702C1743.05 786.662 1737.68 790.175 1732.94 790.882L1716.94 791.358L1694.83 791.292L1693.34 790.926C1684.02 787.947 1680.83 782.198 1676.44 774.158Z"/>
	<path fill="#5EC05B" transform="scale(0.336914 0.336914)" d="M1707.61 784.114L1707.86 783.289C1709.8 776.357 1708.89 767.746 1708.9 760.569C1708.91 756.717 1708.13 753.514 1710.5 750.389C1713.78 749.9 1713.8 749.729 1716.5 751.597C1718.28 758.132 1717.2 767.379 1717.17 774.196C1717.15 776.855 1717.65 780.622 1716.28 782.971L1715.51 784.082C1727.28 784.071 1734.9 784.592 1743.76 775.673C1745.63 773.792 1747.34 771.876 1748.55 769.5C1748.37 771.013 1748.29 772.599 1747.85 774.061C1748.42 777.678 1747.74 779.566 1745.66 782.702C1743.05 786.662 1737.68 790.175 1732.94 790.882L1716.94 791.358L1694.83 791.292L1693.34 790.926C1684.02 787.947 1680.83 782.198 1676.44 774.158L1678.5 768.596C1683.66 776.386 1688.47 781.9 1698.16 783.851C1701.12 784.446 1704.6 784.179 1707.61 784.114Z"/>
	<path fill="#9DD590" transform="scale(0.336914 0.336914)" d="M219.151 641.799C222.083 640.343 223.651 635.276 226.02 632.586C237.237 619.851 256.247 615.68 272.054 621.139C282.532 624.757 291.066 632.765 295.857 642.734C301.368 654.201 299.225 670.132 299.204 682.612C299.183 695.072 299.57 707.667 299.068 720.103C299.264 732.416 298.122 741.836 288.937 751.13C282.775 757.366 275.815 760.005 267.439 761.616L263.051 761.895L253.304 762.104C243.527 760.961 235.081 758.61 227.858 751.5C218.956 742.738 217.149 734.806 216.954 722.88C218.317 718.689 217.933 713.99 217.97 709.626C218.025 702.966 218.416 696.103 217.482 689.496L219.21 679.958L219.151 641.799Z"/>
	<path fill="#5EC05B" transform="scale(0.336914 0.336914)" d="M252.992 755.957C252.964 746.813 252.949 737.668 253.031 728.525C253.067 724.555 252.431 720.288 254.852 716.922C257.323 715.557 258.066 715.888 260.76 716.273C261.258 716.891 262.755 718.336 262.961 719C263.635 721.167 263.086 725.689 263.123 728.082C263.266 737.585 263.254 747.092 263.269 756.596C277.454 752.406 286.332 746.531 293.361 732.909C295.411 728.936 296.517 724.612 298.722 720.708L299.068 720.103C299.264 732.416 298.122 741.836 288.937 751.13C282.775 757.366 275.815 760.005 267.439 761.616L263.051 761.895L253.304 762.104C243.527 760.961 235.081 758.61 227.858 751.5C218.956 742.738 217.149 734.806 216.954 722.88L218.604 721.217C224.256 734.806 228.714 747.226 243.618 753.328C246.565 754.534 249.899 755.208 252.992 755.957Z"/>
	<path fill="white" transform="scale(0.336914 0.336914)" d="M217.482 689.496C218.416 696.103 218.025 702.966 217.97 709.626C217.933 713.99 218.317 718.689 216.954 722.88C217.149 734.806 218.956 742.738 227.858 751.5C235.081 758.61 243.527 760.961 253.304 762.104L253.089 858.062L182.306 857.966L172.057 857.949L172.182 715.058L181.937 714.861L182.662 715.008C186.046 714.674 189.341 714.24 192.574 713.159C205.593 708.806 211.651 701.336 217.482 689.496Z"/>
	<path fill="#E9907F" transform="scale(0.336914 0.336914)" d="M181.937 714.861L182.662 715.008L182.306 857.966L172.057 857.949L172.182 715.058L181.937 714.861Z"/>
	<path fill="#5EC05B" transform="scale(0.336914 0.336914)" d="M1749.48 690.099C1751.19 684.73 1750.2 677.301 1750.21 671.602C1750.24 655.427 1750.26 639.25 1750.25 623.075C1750.24 613.899 1748.74 602.001 1751.8 593.322L1752.09 592.5L1754.26 587.223C1758.77 578.387 1767.02 570.564 1776.55 567.507C1788.5 563.673 1800.32 564.361 1811.5 570.237C1820.16 574.789 1828.22 583.496 1831.18 592.94L1831.41 593.686L1831.89 595.216C1833.87 602.198 1833.05 610.704 1833.08 617.978C1833.15 632.304 1833.17 646.632 1833.12 660.959C1833.1 667.417 1834.53 679.468 1831.56 684.958C1833.1 689.861 1832.45 692.661 1830 697.325C1826.73 703.546 1820.67 708.867 1813.89 710.827C1808.37 712.422 1802.69 712.494 1796.98 712.155L1796.82 712.848L1785.89 712.094L1772.89 712.309L1767.83 710.677C1757.83 706.915 1753.56 699.332 1749.48 690.099Z"/>
	<path fill="#5EC05B" transform="scale(0.336914 0.336914)" d="M133.66 680.309C133.077 679.053 133.081 678.119 133.06 676.782C132.783 658.52 132.852 640.236 132.887 621.971C132.901 614.526 131.896 605.258 133.351 598C134.889 590.332 138.254 583.358 143.734 577.761C152.159 569.157 163.33 563.957 175.433 563.933C187.486 563.91 199.025 568.483 207.507 577.086C224.062 593.878 219.268 620.068 219.151 641.799L219.21 679.958L217.482 689.496C211.651 701.336 205.593 708.806 192.574 713.159C189.341 714.24 186.046 714.674 182.662 715.008L181.937 714.861L172.182 715.058C163.882 714.885 155.228 711.866 148.686 706.763C140.336 700.249 135.095 690.753 133.66 680.309Z"/>
	<path fill="#667565" transform="scale(0.336914 0.336914)" d="M172.071 708.381C172.036 698.569 171.998 688.757 172.015 678.946C172.019 676.805 171.555 671.409 172.506 669.51C172.88 668.764 174.365 667.617 175 666.971C177.64 666.856 178.268 666.681 180.5 668.008C182.682 671.398 182.064 675.771 182.087 679.673C182.142 689.003 182.111 698.334 182.069 707.665L181.937 714.861L172.182 715.058L172.071 708.381Z"/>
	<path fill="#5EC05B" transform="scale(0.336914 0.336914)" d="M1835.99 766.074L1836.2 765.402C1837.95 759.539 1836.97 751.4 1836.96 745.185C1836.91 727.205 1836.82 709.225 1836.73 691.245C1836.69 682.484 1835.24 670.319 1837.75 662C1840.85 651.729 1846.73 642.979 1856.27 637.648C1865.72 632.363 1877.77 631.456 1888.1 634.428C1898.34 637.376 1907 644.517 1911.96 653.912C1913.72 657.244 1915.12 660.768 1915.73 664.5C1917.31 674.207 1916.22 685.546 1916.22 695.451C1916.22 719.438 1915.72 743.529 1916.56 767.5L1915.03 769.898C1915.81 774.776 1914.78 777.581 1911.77 781.661C1907.87 786.949 1902.15 790.601 1895.63 791.574C1890.47 792.344 1884.89 791.993 1879.68 791.919C1876.85 791.523 1873.52 791.933 1870.64 792.029L1869.96 791.704C1862.74 792.236 1855.13 792.294 1848.72 788.56C1838.77 782.767 1838.47 776.125 1835.99 766.074Z"/>
	<path fill="#8EA2FF" transform="scale(0.336914 0.336914)" d="M873.924 162.928L1171.68 162.515C1174.13 169.464 1172.87 179.511 1172.84 186.93C1172.79 202.901 1172.69 218.871 1172.58 234.841C1172.53 242.146 1174.22 255.678 1171.65 262.089L1142.2 262.022L1144.16 258.5C1144.26 243.321 1144.34 228.14 1144.33 212.961C1144.33 207.193 1145.49 199.218 1142.62 194.07L904.109 193.954L904.014 262.265L874.052 262.298L873.924 162.928Z"/>
	<path fill="white" transform="scale(0.336914 0.336914)" d="M904.109 193.954L1142.62 194.07C1145.49 199.218 1144.33 207.193 1144.33 212.961C1144.34 228.14 1144.26 243.321 1144.16 258.5L1142.2 262.022C1136.45 263.099 1128.9 262.23 1122.99 262.239C1107.82 262.263 1092.64 262.277 1077.47 262.281C1019.65 262.298 961.834 262.277 904.014 262.265L904.109 193.954Z"/>
	<path fill="#4D73D3" transform="scale(0.336914 0.336914)" d="M1300.68 414.894L1678.18 414.903C1680.76 418.982 1681.21 456.339 1679.63 461.747C1679.37 462.661 1678.7 463.57 1678.12 464.309C1668.01 464.369 1654.57 462.979 1644.86 465.016L1300.65 465.075L1300.68 414.894Z"/>
	<path fill="#4D73D3" transform="scale(0.336914 0.336914)" d="M874.052 262.298L904.014 262.265C961.834 262.277 1019.65 262.298 1077.47 262.281C1092.64 262.277 1107.82 262.263 1122.99 262.239C1128.9 262.23 1136.45 263.099 1142.2 262.022L1171.65 262.089L1330.65 262.123C1334.18 268.594 1332.41 283.774 1332.34 291.421C1332.31 294.567 1332.8 299.345 1331.96 302.257C1331.69 303.183 1331.03 304.102 1330.44 304.855L1299.45 305.176C1294.61 304.441 1288.92 304.997 1283.97 304.994C1273.81 304.989 1263.66 304.989 1253.5 304.989C1216.23 304.987 1178.96 304.986 1141.69 304.987C1010.21 304.992 878.731 305.039 747.253 304.998L713.786 304.997L713.797 262.586L874.052 262.298Z"/>
	<path fill="#5EC05B" transform="scale(0.336914 0.336914)" d="M97.8356 907.904L1949.34 908.136L1951.31 911.5C1951.36 920.418 1953.78 937.214 1947.63 943.867C1945.29 946.405 1941.95 948.002 1938.5 948.074C1897.17 948.928 1855.61 947.94 1814.25 947.932C1727.25 947.916 1640.25 947.916 1553.25 947.958C1277.33 948.094 1001.42 947.97 725.501 948.005C582.727 948.023 439.952 948.073 297.178 948.033C253.741 948.021 210.304 947.99 166.866 948.009C154.259 948.014 141.654 948.099 129.047 948.172C122.646 948.209 115.712 948.793 109.382 948.129C106.435 947.819 103.569 946.18 101.515 944.081C95.1083 937.532 97.8094 916.981 97.8356 907.904Z"/>
	<path fill="#9DD590" transform="scale(0.336914 0.336914)" d="M1716.09 856.952C1722.2 858.427 1728.95 857.804 1735.21 857.812C1746.86 857.829 1758.51 857.81 1770.17 857.779C1773.94 857.77 1782.18 858.872 1785.28 857.415L1785.71 857.129C1788.82 857.557 1793.11 858.52 1796 857.032C1802.85 858.355 1810.16 857.784 1817.13 857.784C1829.06 857.784 1841 857.761 1852.93 857.735C1857.21 857.726 1866.37 858.903 1869.63 857.055C1872.43 857.511 1877.08 858.481 1879.7 857.139L1880.64 857.276C1895.21 859.3 1911.76 857.701 1926.53 857.636C1931.35 857.615 1938 856.757 1942.57 858.274C1945.32 859.189 1947.52 861.786 1949.28 863.977C1952.12 867.5 1951.27 873.622 1951.25 877.909C1951.23 886.771 1951.32 895.637 1951.35 904.5L1949.34 908.136L97.8356 907.904L98.0647 866.96L102.5 861.39C104.164 859.716 106.906 858.479 109.19 858.051C114.687 857.021 121.651 857.876 127.352 857.872C142.254 857.861 157.155 857.9 172.057 857.949L182.306 857.966L253.089 858.062L263.102 858.122L334.109 858.011L342.293 858.006L403.239 858.176L747.687 858.825L805.839 859.102C914.6 859.268 1023.36 859.251 1132.12 859.193C1158.84 859.179 1185.55 859.191 1212.27 859.097C1220.49 859.067 1232.53 860.545 1240.35 858.719L1299.37 857.985L1645.7 857.744C1653.92 857.906 1701.85 859.254 1706.59 857.018C1709.62 857.464 1713.2 858.34 1716.09 856.952Z"/>
	<path fill="#8EA2FF" transform="scale(0.336914 0.336914)" d="M747.253 304.998C878.731 305.039 1010.21 304.992 1141.69 304.987C1178.96 304.986 1216.23 304.987 1253.5 304.989C1263.66 304.989 1273.81 304.989 1283.97 304.994C1288.92 304.997 1294.61 304.441 1299.45 305.176C1300.15 306.344 1300.81 307.626 1300.95 309C1301.54 314.925 1301.04 321.441 1301.05 327.418C1301.08 340.019 1301.08 352.62 1301.07 365.221C1301.06 376.083 1301.05 386.944 1301.02 397.806C1301.01 403.333 1301.51 409.443 1300.68 414.894L1300.65 465.075L1644.86 465.016C1645.47 466.674 1645.96 468.322 1645.99 470.107C1647.27 560.713 1645.91 651.571 1645.98 742.202C1646 769.346 1646.01 796.489 1646 823.633C1645.99 834.23 1647.5 847.53 1645.7 857.744L1299.37 857.985L1240.35 858.719C1232.53 860.545 1220.49 859.067 1212.27 859.097C1185.55 859.191 1158.84 859.179 1132.12 859.193C1023.36 859.251 914.6 859.268 805.839 859.102L747.687 858.825L403.239 858.176L403.007 465.108L364.174 465.2L363.938 414.95L388.343 414.819C393.309 413.408 402.519 414.523 407.861 414.494C426.74 414.39 445.62 414.289 464.5 414.226C558.735 413.911 652.987 413.923 747.223 414.297L747.253 304.998Z"/>
	<path fill="#E9907F" transform="scale(0.336914 0.336914)" d="M1017.89 360.352C1035.91 358.893 1053.97 364.767 1068.24 375.699C1081.09 385.548 1089.91 401.015 1091.98 417.061C1094.43 436.082 1090.28 455.005 1078.46 470.355C1066.79 485.497 1049.85 493.412 1031.22 495.804C1014.38 498.029 996.377 491.94 983.019 481.801C967.995 470.398 958.946 454.822 956.427 436.156C954.055 418.587 958.934 399.982 969.844 385.951C981.876 370.477 998.759 362.649 1017.89 360.352Z"/>
	<path fill="white" transform="scale(0.336914 0.336914)" d="M1011.78 384.694L1036.35 384.637C1036.85 385.28 1037.42 386.062 1037.65 386.854C1039.2 392.205 1038.75 409.27 1036.19 414.067L1067.18 414.014C1067.77 414.808 1068.42 415.755 1068.69 416.717C1070.02 421.515 1069.61 435.368 1067.41 439.633L1035.85 439.431C1036.57 440.348 1037.21 441.33 1037.4 442.5C1038.38 448.662 1039.21 466.772 1035.46 471.552C1029.96 473.503 1018.01 471.944 1011.8 471.97L1011.91 439.416L980.077 439.547L980.103 413.902L1011.65 413.943L1011.78 384.694Z"/>
	<path fill="#4D73D3" transform="scale(0.336914 0.336914)" d="M805.296 381.104L909 381.191C910.461 382.052 911.917 382.503 912.639 384.093C914.922 389.124 913.343 412.641 913.358 419.78C913.415 447.11 913.428 474.44 913.395 501.77C913.386 509.465 913.373 517.159 913.345 524.853C913.327 529.723 913.848 534.591 912.098 539.215C885.268 539.297 858.438 539.373 831.609 539.4C825.603 539.406 819.597 539.409 813.592 539.371C811.701 539.36 808.562 539.72 806.838 539.03C805.347 538.434 804.621 538.047 804.117 536.466C803.177 533.51 803.846 528.508 803.841 525.365C803.824 515.287 803.808 505.209 803.805 495.131C803.796 470.23 803.816 445.328 803.876 420.427C803.904 409.077 803.004 396.738 804.032 385.5C804.173 383.954 804.685 382.519 805.296 381.104Z"/>
	<path fill="white" transform="scale(0.336914 0.336914)" d="M811.124 388.267L906.044 388.284L906.13 532.098L810.992 531.964L811.124 388.267Z"/>
	<path fill="#4D73D3" transform="scale(0.336914 0.336914)" d="M1136.06 381.494C1146.9 379.057 1161.45 380.731 1172.67 380.739C1196.12 380.755 1219.7 380.31 1243.14 381.135C1243.93 382.08 1244.79 383.233 1244.94 384.5C1246.7 399.68 1245.12 417.197 1245.1 432.617C1245.04 466.912 1245.02 501.206 1244.97 535.5L1242.44 537.654L1242.16 537.991C1241.44 538.654 1240.46 538.981 1239.5 539.075C1228.35 540.168 1216.01 539.153 1204.75 539.163C1181.29 539.183 1157.79 539.398 1134.33 538.908C1136.7 534.473 1135.84 527.641 1135.86 522.649C1135.9 511.743 1135.88 500.836 1135.87 489.93C1135.82 453.865 1134.87 417.527 1136.06 381.494Z"/>
	<path fill="white" transform="scale(0.336914 0.336914)" d="M1158.44 387.5L1236.86 387.483C1237.23 388.257 1237.56 389.062 1237.74 389.909C1238.63 394.173 1237.98 399.807 1237.99 404.221C1238.02 414.566 1238.05 424.912 1238.07 435.257C1238.11 456.581 1238.15 477.906 1238.13 499.23C1238.12 508.623 1238.94 518.724 1238.02 528C1237.86 529.52 1237.07 530.942 1236.26 532.206L1220.75 532.21L1141.14 532.132C1141.76 531.33 1142.48 530.31 1142.76 529.317C1143.57 526.446 1143 521.782 1143.02 518.745C1143.07 510.489 1143.1 502.233 1143.12 493.976C1143.17 470.765 1143.17 447.552 1143.1 424.341C1143.08 413.798 1143.92 402.406 1142.91 392C1142.76 390.394 1141.96 388.882 1141.13 387.524L1158.44 387.5Z"/>
	<path fill="#4D73D3" transform="scale(0.336914 0.336914)" d="M363.938 414.95L388.343 414.819L747.627 415.048L747.616 465.356L646.837 465.291L403.007 465.108L364.174 465.2L363.938 414.95Z"/>
	<path fill="#4D73D3" transform="scale(0.336914 0.336914)" d="M446.042 602.138L547 602.051C549.358 602.416 549.831 603.66 550.967 605.5C550.979 654.959 551.035 704.417 551.059 753.875C551.064 762.924 551.05 771.971 551.013 781.02C551.006 782.752 551.566 788.089 550.973 789.5C550.571 790.455 548.974 792.029 548.29 792.894L443.839 792.808C442.244 760.541 443.939 727.366 443.837 695.007C443.779 676.559 443.686 658.112 443.574 639.664C443.511 629.459 442.888 618.889 443.579 608.717C443.787 605.642 444.413 604.63 446.042 602.138Z"/>
	<path fill="white" transform="scale(0.336914 0.336914)" d="M450.239 608.907L544.531 608.908L544.252 786.007L450.252 786.122L450.239 608.907Z"/>
	<path fill="#4D73D3" transform="scale(0.336914 0.336914)" d="M1440.92 600.5L1443.12 600.566C1446.13 601.114 1446.42 601.535 1447.95 604C1447.99 650.052 1448.03 696.105 1448.01 742.157C1448.01 753.588 1448.01 765.018 1447.98 776.449C1447.97 780.614 1448.83 786.31 1446.92 790C1446.27 790.531 1445.23 791.657 1444.5 791.97C1443.7 792.314 1440.97 792.001 1440.01 792.008C1434.99 792.039 1429.98 792.018 1424.97 792.014C1398.62 791.994 1372.27 791.966 1345.92 791.94L1345.25 791.8C1343.5 791.082 1341.28 789.504 1340.95 787.5C1339.35 777.586 1340.9 764.459 1340.93 754.156C1341 718.114 1341.07 682.073 1341.04 646.031C1341.03 637.49 1343.07 607.352 1339.34 601.1L1440.92 600.5Z"/>
	<path fill="white" transform="scale(0.336914 0.336914)" d="M1346.9 608.497C1355.58 606.346 1367.56 607.753 1376.6 607.745C1397.53 607.725 1418.47 607.733 1439.4 607.747C1440.16 608.72 1440.84 609.76 1441.03 611C1441.94 617.045 1441.14 624.481 1441.11 630.701C1441.04 644.044 1441.03 657.385 1441.03 670.729C1441.05 695.852 1441.05 720.975 1441 746.098C1440.97 757.309 1441.96 769.451 1440.83 780.5C1440.69 781.842 1439.93 783.108 1439.18 784.195C1436.25 786.332 1357.19 784.97 1346.28 784.958C1346.81 784.285 1347.25 783.595 1347.63 782.825C1348.39 781.257 1349.24 614.956 1346.9 608.497Z"/>
	<path fill="#4D73D3" transform="scale(0.336914 0.336914)" d="M599.465 601.971L701.312 602.166C704.523 602.419 704.835 603.249 706.777 605.5C707.063 626.285 709.126 784.934 705.221 792.855C679.321 793.287 653.353 792.974 627.447 792.942C621.364 792.934 615.282 792.924 609.199 792.895C606.909 792.884 603.506 793.283 601.349 792.713C599.88 792.324 598.712 791.386 598.196 789.952C597.281 787.406 597.874 782.59 597.866 779.829C597.841 771.284 597.855 762.738 597.869 754.192C597.927 719.073 597.844 683.955 597.835 648.835C597.832 638.59 597.836 628.345 597.872 618.1C597.89 613.107 596.956 606.373 599.465 601.971Z"/>
	<path fill="white" transform="scale(0.336914 0.336914)" d="M604.608 608.992L699.895 608.965L699.968 786.135L604.502 786.209L604.608 608.992Z"/>
	<path fill="#4D73D3" transform="scale(0.336914 0.336914)" d="M1497.41 600.499C1524.43 600.119 1551.48 600.379 1578.5 600.399C1584.39 600.403 1590.29 600.344 1596.17 600.47C1597.67 600.502 1601.21 600.172 1602.5 600.65C1603.23 600.921 1604.34 602.005 1605.01 602.5C1606.6 608.414 1605.55 616.203 1605.48 622.418C1605.33 635.194 1605.27 647.966 1605.28 660.743C1605.32 691.069 1605.43 721.395 1605.53 751.72C1605.55 759.597 1605.58 767.473 1605.59 775.35C1605.6 779.747 1606.07 784.672 1605.15 788.984C1604.96 789.874 1602.68 790.97 1601.84 791.501C1599.31 792.514 1595.89 792.071 1593.15 792.076C1586.79 792.087 1580.44 792.1 1574.08 792.106C1547.19 792.131 1520.28 792.35 1493.39 791.929C1494.11 790.896 1494.77 789.769 1494.93 788.5C1495.59 783.268 1495.09 777.23 1495.09 771.931C1495.1 761.372 1495.07 750.813 1495.05 740.254C1495 704.638 1495.03 669.021 1495 633.404C1495 626.057 1494.99 618.71 1494.99 611.362C1494.99 609.563 1494.41 605.056 1494.98 603.5C1495.25 602.759 1496.86 601.178 1497.41 600.499Z"/>
	<path fill="white" transform="scale(0.336914 0.336914)" d="M1500.9 608.498C1509.81 606.302 1522.16 607.775 1531.43 607.775C1553.05 607.775 1574.68 607.803 1596.31 607.837C1597.14 608.928 1597.92 610.112 1598.11 611.5C1599.16 619.064 1598.24 628.355 1598.26 636.092C1598.34 655.543 1598.35 674.994 1598.36 694.445C1598.36 714.7 1598.36 734.954 1598.3 755.209C1598.27 763.197 1599.2 772.677 1598.15 780.5C1597.95 781.998 1597.17 783.292 1596.31 784.501C1592.3 786.477 1579.04 785.014 1574.16 785.016C1549.5 785.027 1524.84 785.031 1500.18 785.021C1500.7 784.352 1501.21 783.629 1501.56 782.85C1502.61 780.499 1502 776.033 1502.02 773.416C1502.07 764.26 1502.09 755.103 1502.11 745.947C1502.18 714.223 1502.18 682.498 1502.13 650.774C1502.11 641.626 1502.1 632.478 1502.06 623.33C1502.04 618.398 1502.62 613.186 1500.9 608.498Z"/>
	<path fill="#4D73D3" transform="scale(0.336914 0.336914)" d="M788.456 616.928C788.193 604.343 788.218 591.762 788.243 579.176C788.248 577.043 787.551 571.291 788.266 569.5C788.552 568.786 789.519 567.801 790 567.149C791.769 566.067 793.179 566.119 795.173 566.116C909.879 565.984 1024.59 566.11 1139.29 566.055C1168.28 566.041 1197.26 566.016 1226.25 566.065C1233.1 566.077 1239.95 566.093 1246.81 566.116C1250.08 566.126 1254.15 565.683 1257.3 566.371C1260.19 569.925 1259.35 575.533 1259.4 579.927C1259.51 590.165 1260.69 602.112 1259.35 612.191L1258.69 614.698C1254.16 617.667 1245.95 616.722 1240.45 616.709C1241.21 617.859 1241.92 619.105 1242.09 620.5C1242.97 627.871 1242.21 636.347 1242.23 643.813C1242.25 660.242 1242.23 676.672 1242.22 693.102C1242.16 747.234 1242.2 801.367 1242.21 855.5L1240.35 858.719C1232.53 860.545 1220.49 859.067 1212.27 859.097C1185.55 859.191 1158.84 859.179 1132.12 859.193C1023.36 859.251 914.6 859.268 805.839 859.102L805.875 616.99L788.456 616.928Z"/>
	<path fill="white" transform="scale(0.336914 0.336914)" d="M847.519 573.493L1250.37 573.671C1251.25 574.834 1252 576.041 1252.23 577.5C1253.33 584.37 1254.19 603.803 1250.43 609.445L1199.75 609.347L795.619 609.621L795.665 573.725L847.519 573.493Z"/>
	<path fill="#8EA2FF" transform="scale(0.336914 0.336914)" d="M813.356 616.938L896.102 616.905L896.41 852.168L813.105 852.09L813.356 616.938Z"/>
	<path fill="#8EA2FF" transform="scale(0.336914 0.336914)" d="M1149.81 617.492C1157.73 615.434 1168.73 616.694 1177.03 616.684C1195.81 616.662 1214.6 616.669 1233.39 616.683C1233.97 617.425 1234.63 618.342 1234.89 619.253C1235.74 622.247 1235.11 627.303 1235.12 630.565C1235.15 640.013 1235.13 649.462 1235.11 658.91C1235.03 696.927 1234.99 734.939 1235.07 772.956C1235.1 789.706 1235.13 806.456 1235.12 823.206C1235.12 831.048 1235.85 839.736 1235.03 847.5C1234.87 848.957 1234.11 850.3 1233.32 851.505C1229.68 853.478 1217.88 852.205 1213.27 852.2C1192.02 852.174 1170.76 852.148 1149.51 852.122L1150.72 850.196C1152.55 846.355 1151.07 805.992 1151.07 799.101C1151.08 759.194 1151.1 719.286 1151.07 679.379C1151.06 660.555 1152.34 640.728 1150.96 622C1150.85 620.438 1150.36 618.945 1149.81 617.492Z"/>
	<path fill="white" transform="scale(0.336914 0.336914)" d="M1028.17 616.491L1142.35 616.648C1143.11 617.622 1143.87 618.745 1144.02 620C1144.74 625.844 1144.08 632.453 1144.03 638.364C1143.93 649.861 1143.94 661.357 1143.94 672.855C1143.93 721.097 1143.95 769.34 1143.96 817.582C1143.96 825.967 1143.96 834.352 1143.96 842.736C1143.96 844.262 1144.46 848.416 1143.96 849.5C1143.56 850.378 1142.16 851.712 1141.51 852.502C1132.27 854.213 1119.94 852.682 1110.43 852.677C1082.38 852.664 1054.32 852.642 1026.27 852.618C1027.02 851.515 1027.69 850.34 1027.86 849C1028.68 842.439 1027.97 834.698 1027.97 828.024C1027.98 813.429 1027.95 798.834 1027.92 784.239C1027.82 728.484 1026.43 672.19 1028.17 616.491Z"/>
	<path fill="#8EA2FF" transform="scale(0.336914 0.336914)" d="M1047.63 731.465C1049.85 731.358 1051.84 731.785 1054 732.202C1055.9 733.72 1057.56 734.705 1058.43 737.102C1059.85 740.994 1059.94 761.36 1057.97 764.733C1056.06 767.99 1054.18 768.498 1050.75 769.512C1047.99 769.321 1046.14 769.035 1044.19 766.829C1043.53 766.077 1042.32 764.441 1042.02 763.5C1041.49 761.874 1041.9 758.022 1041.88 756.176C1041.82 750.235 1041.18 743.351 1042 737.5C1042.38 734.759 1045.53 732.945 1047.63 731.465Z"/>
	<path fill="white" transform="scale(0.336914 0.336914)" d="M938.534 616.49L1021.04 616.545L1020.92 852.78L986.5 852.718L903.041 852.656L903.116 616.752L938.534 616.49Z"/>
	<path fill="#8EA2FF" transform="scale(0.336914 0.336914)" d="M995.151 731.914L1002.5 732.264C1004.6 734.115 1006.69 735.44 1006.98 738.5C1007.55 744.305 1007.1 750.604 1007.02 756.45C1006.99 758.773 1007.32 762.314 1006.71 764.5C1006.4 765.648 1004 768.122 1003.19 769.204C999.726 769.204 996.814 769.273 993.908 767.055C992.428 765.925 991.139 764.425 990.976 762.5C990.49 756.777 989.279 741.729 991.504 736.795C992.296 735.036 993.895 733.364 995.151 731.914Z"/>
</svg>
